<svg preserveAspectRatio="none" width="100%" height="100%" overflow="visible" style="display: block;" viewBox="0 0 261.711 640" fill="none" xmlns="http://www.w3.org/2000/svg">
<path id="Subtract" d="M167.767 0C167.503 0.608719 167.275 1.23807 167.086 1.88672L129.54 130.914C128.675 133.888 126.965 136.546 124.618 138.567L17.0312 231.222C11.3185 236.142 9.81511 244.382 13.4229 251.002L78.0312 369.555C79.6015 372.436 80.248 375.731 79.8828 378.992L65.1963 510.126C64.3944 517.286 68.4782 524.1 75.1709 526.769L213.952 582.113C216.598 583.168 218.914 584.91 220.661 587.159L261.711 640H8C3.58173 640 6.44279e-08 636.418 0 632V8C0 3.58172 3.58172 0 8 0H167.767Z" fill="var(--fill-0, #FFF9E0)"/>
</svg>
