<svg width="19" height="19" viewBox="0 0 19 19" fill="none" xmlns="http://www.w3.org/2000/svg">
<g clip-path="url(#clip0_1328_16704)">
<path d="M8.8965 6.43179L15.4114 6.12683C15.8794 6.10493 16.1135 6.09397 16.2884 6.1615C17.062 6.4602 16.7625 7.31803 16.6633 7.92905C16.6445 8.04515 16.5728 8.11856 16.4865 8.17981M5.89979 6.57206L3.1308 6.70168C2.66274 6.72359 2.42872 6.73454 2.2609 6.81811C1.51859 7.18777 1.89688 8.01387 2.05271 8.61295C2.0807 8.72058 2.15954 8.80967 2.26634 8.85436C2.70922 9.03967 3.03092 9.4154 3.13178 9.86514L3.69408 12.3724C3.94147 13.4755 4.08266 15.062 5.09408 15.8C5.83589 16.3357 6.86633 16.2875 8.9272 16.191L9.72698 16.1536" stroke="#F19100" stroke-width="1.125" stroke-linecap="round"/>
<path d="M13.5645 9.96731C12.6157 10.0117 12.0289 10.6456 11.3116 10.9001C11.02 11.0037 10.8742 11.0554 10.8173 11.1214C10.7604 11.1874 10.7471 11.2806 10.7207 11.467C10.4381 13.4611 11.3436 15.2501 13.3325 15.8699C13.5462 15.9364 13.653 15.9697 13.8461 15.9607C14.0392 15.9517 14.1424 15.9085 14.3489 15.8223C16.2711 15.0195 17.0048 13.1537 16.537 11.1947C16.4933 11.0116 16.4714 10.9201 16.4086 10.8597C16.3457 10.7993 16.1957 10.7614 15.8957 10.6856C15.1575 10.4992 14.5133 9.9229 13.5645 9.96731Z" stroke="#F19100" stroke-width="1.125" stroke-linecap="round" stroke-linejoin="round"/>
<path d="M5.25516 8.85467L7.59674 2.7385M11.3426 2.56316L13.3909 6.22138" stroke="#F19100" stroke-width="1.125" stroke-linecap="round"/>
</g>
<defs>
<clipPath id="clip0_1328_16704">
<rect width="18" height="18" fill="white" transform="translate(0 0.841644) rotate(-2.68)"/>
</clipPath>
</defs>
</svg>
