<svg width="42" height="42" viewBox="0 0 42 42" fill="none" xmlns="http://www.w3.org/2000/svg">
<rect width="42" height="42" rx="12" fill="#DFF4A4"/>
<path d="M13.5 19.334L13.5 23.5007C13.5 25.8577 13.5 27.0362 14.2322 27.7684C14.9645 28.5007 16.143 28.5007 18.5 28.5007H21.4167M28.5 19.334V20.584" stroke="#3D5437" stroke-width="1.25" stroke-linecap="round"/>
<path d="M13.426 14.9462L12.8311 14.7547L12.8311 14.7547L13.426 14.9462ZM12.8562 16.7164L13.4512 16.9079L13.4512 16.9079L12.8562 16.7164ZM28.5727 14.9462L27.9777 15.1377V15.1377L28.5727 14.9462ZM29.1425 16.7164L29.7374 16.5249V16.5249L29.1425 16.7164ZM19.0463 18.728C18.8038 18.4823 18.4081 18.4798 18.1624 18.7223C17.9168 18.9648 17.9143 19.3606 18.1568 19.6062L18.6016 19.1671L19.0463 18.728ZM23.842 18.7275C23.5995 18.4818 23.2038 18.4792 22.9581 18.7217C22.7124 18.9641 22.7098 19.3598 22.9523 19.6055L23.3971 19.1665L23.842 18.7275ZM12.9788 18.5587L13.4855 18.1927L13.4855 18.1927L12.9788 18.5587ZM20.0599 17.8238C20.1465 17.4897 19.9459 17.1486 19.6117 17.062C19.2776 16.9754 18.9365 17.176 18.8499 17.5102L19.4549 17.667L20.0599 17.8238ZM24.8549 17.8238C24.9416 17.4897 24.7409 17.1486 24.4068 17.062C24.0726 16.9754 23.7315 17.176 23.6449 17.5102L24.2499 17.667L24.8549 17.8238ZM29.0199 18.5587L28.5132 18.1927L28.5132 18.1927L29.0199 18.5587ZM29.3106 17.8392L28.6931 17.7428V17.7429L29.3106 17.8392ZM12.6881 17.8392L12.0706 17.9356V17.9356L12.6881 17.8392ZM14.3786 12.9816L14.0047 12.4807L14.0047 12.4807L14.3786 12.9816ZM13.426 14.9462L12.8311 14.7547L12.2613 16.5249L12.8562 16.7164L13.4512 16.9079L14.021 15.1377L13.426 14.9462ZM28.5727 14.9462L27.9777 15.1377L28.5475 16.9079L29.1425 16.7164L29.7374 16.5249L29.1676 14.7547L28.5727 14.9462ZM16.4795 12.667V13.292H25.5192V12.667V12.042H16.4795V12.667ZM20.9988 20.167V19.542C20.233 19.542 19.5425 19.2305 19.0463 18.728L18.6016 19.1671L18.1568 19.6062C18.8791 20.3378 19.8865 20.792 20.9988 20.792V20.167ZM25.7949 20.167V19.542C25.0289 19.542 24.3382 19.2303 23.842 18.7275L23.3971 19.1665L22.9523 19.6055C23.6747 20.3375 24.6823 20.792 25.7949 20.792V20.167ZM16.2038 20.167V19.542C15.1753 19.542 14.0579 18.9854 13.4855 18.1927L12.9788 18.5587L12.4721 18.9246C13.2923 20.0601 14.796 20.792 16.2038 20.792V20.167ZM19.4549 17.667L18.8499 17.5102C18.5477 18.6763 17.479 19.542 16.2038 19.542V20.167V20.792C18.0569 20.792 19.6169 19.5331 20.0599 17.8238L19.4549 17.667ZM24.2499 17.667L23.6449 17.5102C23.3427 18.6763 22.274 19.542 20.9988 19.542V20.167V20.792C22.852 20.792 24.4119 19.5331 24.8549 17.8238L24.2499 17.667ZM29.0199 18.5587L28.5132 18.1927C27.9408 18.9854 26.8234 19.542 25.7949 19.542V20.167V20.792C27.2027 20.792 28.7064 20.0601 29.5266 18.9246L29.0199 18.5587ZM29.1425 16.7164L28.5475 16.9079C28.7034 17.3923 28.7307 17.5015 28.6931 17.7428L29.3106 17.8392L29.9281 17.9356C30.0167 17.3682 29.8898 16.9984 29.7374 16.5249L29.1425 16.7164ZM29.0199 18.5587L29.5266 18.9246C29.5972 18.8269 29.6933 18.6974 29.7696 18.5257C29.8469 18.3519 29.8924 18.1643 29.9281 17.9356L29.3106 17.8392L28.6931 17.7429C28.6657 17.9185 28.6418 17.9856 28.6274 18.0179C28.6121 18.0524 28.5944 18.0804 28.5132 18.1927L29.0199 18.5587ZM28.5727 14.9462L29.1676 14.7547C28.9949 14.2181 28.8505 13.7666 28.6918 13.4133C28.5271 13.0465 28.3219 12.7255 27.994 12.4807L27.6201 12.9816L27.2463 13.4824C27.3398 13.5523 27.4339 13.6635 27.5516 13.9255C27.6752 14.2008 27.7964 14.5743 27.9777 15.1377L28.5727 14.9462ZM25.5192 12.667V13.292C26.0939 13.292 26.4706 13.293 26.7581 13.327C27.0282 13.3589 27.1546 13.414 27.2463 13.4824L27.6201 12.9816L27.994 12.4807C27.6642 12.2346 27.2999 12.1323 26.9049 12.0856C26.5271 12.041 26.0641 12.042 25.5192 12.042V12.667ZM12.8562 16.7164L12.2613 16.5249C12.1089 16.9984 11.982 17.3682 12.0706 17.9356L12.6881 17.8392L13.3056 17.7428C13.268 17.5015 13.2953 17.3923 13.4512 16.9079L12.8562 16.7164ZM12.9788 18.5587L13.4855 18.1927C13.4043 18.0804 13.3866 18.0524 13.3713 18.0179C13.3569 17.9856 13.333 17.9185 13.3056 17.7428L12.6881 17.8392L12.0706 17.9356C12.1063 18.1643 12.1518 18.3519 12.2291 18.5257C12.3054 18.6974 12.4015 18.8269 12.4721 18.9246L12.9788 18.5587ZM13.426 14.9462L14.021 15.1377C14.2023 14.5743 14.3235 14.2008 14.4471 13.9255C14.5648 13.6635 14.6589 13.5523 14.7524 13.4824L14.3786 12.9816L14.0047 12.4807C13.6768 12.7255 13.4716 13.0465 13.3069 13.4133C13.1482 13.7666 13.0038 14.2181 12.8311 14.7547L13.426 14.9462ZM16.4795 12.667V12.042C15.9346 12.042 15.4716 12.041 15.0938 12.0856C14.6988 12.1323 14.3345 12.2346 14.0047 12.4807L14.3786 12.9816L14.7524 13.4824C14.8441 13.414 14.9705 13.3589 15.2406 13.327C15.5281 13.293 15.9048 13.292 16.4795 13.292V12.667Z" fill="#3D5437"/>
<path d="M28.5 19.334V21.4173" stroke="#3D5437" stroke-width="1.25" stroke-linecap="round"/>
<path d="M23.5 26.4167H29.3333M26.4167 29.3333L26.4167 23.5" stroke="#3D5437" stroke-width="1.25" stroke-linecap="round"/>
<path d="M16.832 25.167H20.1654" stroke="#3D5437" stroke-width="1.25" stroke-linecap="round"/>
</svg>
