<svg width="42" height="42" viewBox="0 0 42 42" fill="none" xmlns="http://www.w3.org/2000/svg">
<rect width="42" height="42" rx="12" fill="#D0BDFC"/>
<path d="M20.9993 22.7053C19.1599 22.5335 17.2748 22.9321 15.6473 23.9012C14.4684 24.6032 11.3772 26.0366 13.2599 27.8303C14.1796 28.7065 15.2039 29.3332 16.4917 29.3332H21.8327" stroke="#4C2261" stroke-width="1.25" stroke-linecap="round" stroke-linejoin="round"/>
<path d="M23.916 16.4165C23.916 18.4876 22.2371 20.1665 20.166 20.1665C18.0949 20.1665 16.416 18.4876 16.416 16.4165C16.416 14.3454 18.0949 12.6665 20.166 12.6665C22.2371 12.6665 23.916 14.3454 23.916 16.4165Z" stroke="#4C2261" stroke-width="1.25"/>
<path d="M25.9987 22.6665C24.9434 22.6665 24.2591 23.3395 23.4498 23.5848C23.1207 23.6845 22.9562 23.7344 22.8896 23.8047C22.823 23.875 22.8035 23.9778 22.7645 24.1832C22.3472 26.3818 23.2593 28.4145 25.4345 29.2057C25.6683 29.2907 25.7851 29.3332 25.9999 29.3332C26.2146 29.3332 26.3315 29.2907 26.5652 29.2057C28.7403 28.4145 29.6515 26.3818 29.2341 24.1832C29.1951 23.9777 29.1756 23.875 29.109 23.8047C29.0424 23.7344 28.8778 23.6845 28.5488 23.5848C27.7392 23.3396 27.0541 22.6665 25.9987 22.6665Z" stroke="#4C2261" stroke-width="1.25" stroke-linecap="round" stroke-linejoin="round"/>
</svg>
